<?xml version="1.0" encoding="UTF-8"?>
<svg id="Ebene_1" xmlns="http://www.w3.org/2000/svg" version="1.1" viewBox="0 0 1026 360">
  <!-- Generator: Adobe Illustrator 30.2.1, SVG Export Plug-In . SVG Version: 2.1.1 Build 1)  -->
  <defs>
    <style>
      .st0 {
        fill: #fff8f3;
      }
    </style>
  </defs>
  <path class="st0" d="M67.06,73.54H0v66.85h67.06v-66.85Z"/>
  <path class="st0" d="M362.12,73.54h-67.06v66.85h67.06v-66.85Z"/>
  <path class="st0" d="M657.18,73.54h-67.06v66.85h67.06v-66.85Z"/>
  <path class="st0" d="M952.24,73.54h-67.06v66.85h67.06v-66.85Z"/>
  <path class="st0" d="M952.24,0h-67.06v66.85h67.06V0Z"/>
  <path class="st0" d="M140.82,73.54h-67.06v66.85h67.06v-66.85Z"/>
  <path class="st0" d="M435.88,73.54h-67.06v66.85h67.06v-66.85Z"/>
  <path class="st0" d="M730.94,73.54h-67.06v66.85h67.06v-66.85Z"/>
  <path class="st0" d="M214.59,73.54h-67.06v66.85h67.06v-66.85Z"/>
  <path class="st0" d="M509.65,73.54h-67.06v66.85h67.06v-66.85Z"/>
  <path class="st0" d="M804.71,73.54h-67.06v66.85h67.06v-66.85Z"/>
  <path class="st0" d="M67.06,147.07H0v66.85h67.06v-66.85Z"/>
  <path class="st0" d="M362.12,147.07h-67.06v66.85h67.06v-66.85Z"/>
  <path class="st0" d="M657.18,147.07h-67.06v66.85h67.06v-66.85Z"/>
  <path class="st0" d="M952.24,147.07h-67.06v66.85h67.06v-66.85Z"/>
  <path class="st0" d="M214.59,147.07h-67.06v66.85h67.06v-66.85Z"/>
  <path class="st0" d="M509.65,147.07h-67.06v66.85h67.06v-66.85Z"/>
  <path class="st0" d="M804.71,147.07h-67.06v66.85h67.06v-66.85Z"/>
  <path class="st0" d="M67.06,220.61H0v66.85h67.06v-66.85Z"/>
  <path class="st0" d="M362.12,220.61h-67.06v66.85h67.06v-66.85Z"/>
  <path class="st0" d="M657.18,220.61h-67.06v66.85h67.06v-66.85Z"/>
  <path class="st0" d="M952.24,220.61h-67.06v66.85h67.06v-66.85Z"/>
  <path class="st0" d="M140.82,220.61h-67.06v66.85h67.06v-66.85Z"/>
  <path class="st0" d="M435.88,220.61h-67.06v66.85h67.06v-66.85Z"/>
  <path class="st0" d="M730.94,220.61h-67.06v66.85h67.06v-66.85Z"/>
  <path class="st0" d="M1026,220.61h-67.06v66.85h67.06v-66.85Z"/>
  <path class="st0" d="M214.59,220.61h-67.06v66.85h67.06v-66.85Z"/>
  <path class="st0" d="M509.65,220.61h-67.06v66.85h67.06v-66.85Z"/>
  <path class="st0" d="M804.71,220.61h-67.06v66.85h67.06v-66.85Z"/>
  <path class="st0" d="M67.06,294.15H0v66.85h67.06v-66.85Z"/>
</svg>